<svg width="20" height="21" viewBox="0 0 20 21" fill="none" xmlns="http://www.w3.org/2000/svg">
<path fill-rule="evenodd" clip-rule="evenodd" d="M7.50011 17.9409C7.50011 17.4807 7.8732 17.1076 8.33344 17.1076H11.6668C12.127 17.1076 12.5001 17.4807 12.5001 17.9409C12.5001 18.4011 12.127 18.7742 11.6668 18.7742H8.33344C7.8732 18.7742 7.50011 18.4011 7.50011 17.9409Z" fill="white"/>
<path fill-rule="evenodd" clip-rule="evenodd" d="M5.87532 2.98279C6.96928 1.88883 8.45301 1.27425 10.0001 1.27425C11.5472 1.27425 13.0309 1.88883 14.1249 2.98279C15.2189 4.07675 15.8334 5.56048 15.8334 7.10758C15.8334 9.53481 16.4434 11.1441 17.0829 12.1718L17.0928 12.1877C17.3906 12.6662 17.6259 13.0445 17.7846 13.3198C17.8641 13.4578 17.9366 13.5907 17.9902 13.7088C18.017 13.7678 18.0469 13.84 18.0703 13.9186C18.0898 13.9838 18.1268 14.1232 18.1129 14.2928C18.1036 14.4068 18.0803 14.6016 17.9685 14.8028C17.8567 15.0041 17.7036 15.1267 17.6118 15.1949C17.4032 15.3496 17.1637 15.385 17.0837 15.3968L17.08 15.3973C16.9572 15.4155 16.8178 15.4245 16.6772 15.43C16.3978 15.4409 16.011 15.4409 15.53 15.4409H4.47023C3.98921 15.4409 3.60243 15.4409 3.32305 15.43C3.18242 15.4245 3.04302 15.4155 2.92018 15.3973L2.91649 15.3968C2.83655 15.385 2.59702 15.3496 2.38845 15.1949C2.29658 15.1267 2.14347 15.0041 2.03168 14.8028C1.91989 14.6016 1.89664 14.4068 1.88732 14.2928C1.87344 14.1232 1.91045 13.9838 1.92987 13.9186C1.95328 13.84 1.98323 13.7678 2.01 13.7088C2.06364 13.5907 2.13608 13.4578 2.2156 13.3198C2.37429 13.0445 2.60969 12.6662 2.90746 12.1876L2.91729 12.1718C3.55677 11.1441 4.16677 9.53481 4.16677 7.10758C4.16677 5.56048 4.78136 4.07675 5.87532 2.98279Z" fill="white"/>
</svg>
